HIERARCHY
ROOT Hips
{
 OFFSET 0.000000 0.000000 0.000000
 CHANNELS 6 Xposition Yposition Zposition Yrotation Xrotation Zrotation
 JOINT Chest
 {
  OFFSET 0.000000 9.585900 0.002600
  CHANNELS 3 Yrotation Xrotation Zrotation
  JOINT Chest2
  {
   OFFSET 0.000000 9.601200 -0.005300
   CHANNELS 3 Yrotation Xrotation Zrotation
   JOINT Chest3
   {
    OFFSET 0.000000 9.561800 0.000000
    CHANNELS 3 Yrotation Xrotation Zrotation
    JOINT Chest4
    {
     OFFSET 0.000000 9.552100 0.000000
     CHANNELS 3 Yrotation Xrotation Zrotation
     JOINT Neck
     {
      OFFSET 0.000000 14.453000 0.000000
      CHANNELS 3 Yrotation Xrotation Zrotation
      JOINT Head
      {
       OFFSET 0.000000 8.936500 -0.011300
       CHANNELS 3 Yrotation Xrotation Zrotation
       End Site
       {
        OFFSET 0.000000 17.073600 -0.006000
       }
      }
     }
     JOINT RightCollar
     {
      OFFSET -2.921100 9.558500 0.000000
      CHANNELS 3 Yrotation Xrotation Zrotation
      JOINT RightShoulder
      {
       OFFSET -13.519700 0.000000 0.000000
       CHANNELS 3 Yrotation Xrotation Zrotation
       JOINT RightElbow
       {
        OFFSET 0.000000 -29.696600 0.000000
        CHANNELS 3 Yrotation Xrotation Zrotation
        JOINT RightWrist
        {
         OFFSET 0.000000 -24.004700 0.000000
         CHANNELS 3 Yrotation Xrotation Zrotation
         End Site
         {
          OFFSET 0.000000 -17.728500 0.000000
         }
        }
       }
      }
     }
     JOINT LeftCollar
     {
      OFFSET 2.921100 9.558500 0.000000
      CHANNELS 3 Yrotation Xrotation Zrotation
      JOINT LeftShoulder
      {
       OFFSET 13.519700 0.000000 0.000000
       CHANNELS 3 Yrotation Xrotation Zrotation
       JOINT LeftElbow
       {
        OFFSET 0.000000 -29.696600 0.000000
        CHANNELS 3 Yrotation Xrotation Zrotation
        JOINT LeftWrist
        {
         OFFSET 0.000000 -24.004700 0.000000
         CHANNELS 3 Yrotation Xrotation Zrotation
         End Site
         {
          OFFSET 0.000000 -17.728500 0.000000
         }
        }
       }
      }
     }
    }
   }
  }
 }
 JOINT RightHip
 {
  OFFSET -7.771700 -0.012900 -0.001300
  CHANNELS 3 Yrotation Xrotation Zrotation
  JOINT RightKnee
  {
   OFFSET 0.000000 -40.869800 0.001200
   CHANNELS 3 Yrotation Xrotation Zrotation
   JOINT RightAnkle
   {
    OFFSET 0.000000 -39.717900 0.002100
    CHANNELS 3 Yrotation Xrotation Zrotation
    JOINT RightToe
    {
     OFFSET 0.000000 -4.965400 11.033500
     CHANNELS 3 Yrotation Xrotation Zrotation
     End Site
     {
      OFFSET 0.000000 -1.423100 5.872300
     }
    }
   }
  }
 }
 JOINT LeftHip
 {
  OFFSET 7.771700 -0.012900 -0.001300
  CHANNELS 3 Yrotation Xrotation Zrotation
  JOINT LeftKnee
  {
   OFFSET 0.000000 -40.869800 0.001200
   CHANNELS 3 Yrotation Xrotation Zrotation
   JOINT LeftAnkle
   {
    OFFSET 0.000000 -39.717900 0.002100
    CHANNELS 3 Yrotation Xrotation Zrotation
    JOINT LeftToe
    {
     OFFSET 0.000000 -4.965400 11.033500
     CHANNELS 3 Yrotation Xrotation Zrotation
     End Site
     {
      OFFSET 0.000000 -1.423100 5.872300
     }
    }
   }
  }
 }
}
MOTION
Frames: 8
Frame Time: 0.008333
-229.292555 57.645573 23.819392 176.653677 -50.979202 -3.345246 4.198857 22.755485 3.893741 2.152863 13.040089 1.989065 2.777104 16.285064 2.581480 2.146144 13.039378 1.988450 1.210385 16.185266 6.282366 0.029043 -5.585192 11.207049 1.720669 2.092714 0.838342 1.613270 -15.059404 -13.019610 -27.185938 -13.862175 92.531630 -13.400685 -11.453778 -32.531933 -10.160909 -1.125083 -0.938892 1.600538 -16.483791 9.674687 27.415406 -21.668170 -78.214724 6.562865 4.872506 -4.127450 5.296991 -20.675774 -2.434444 -41.854702 72.596615 -45.731391 4.116874 -13.431097 12.657132 0.030668 0.030057 0.080481 -9.441790 -19.220040 8.929918 50.852303 81.916654 51.505517 -1.409567 -17.499281 -21.124528 -0.029179 0.020454 -0.008561
-229.293091 57.644771 23.816048 176.655751 -50.972951 -3.343578 4.200188 22.752295 3.892205 2.157483 13.042106 1.990177 2.774647 16.281479 2.582498 2.152689 13.040017 1.989027 1.201655 16.199605 6.258878 0.024009 -5.581103 11.199973 1.720157 2.094916 0.835047 1.602156 -15.065181 -13.011305 -27.182373 -13.938002 92.514784 -13.483227 -11.548915 -32.551063 -10.160862 -1.125933 -0.930433 1.617968 -16.464915 9.649058 27.391177 -21.707978 -78.208379 6.553732 4.839975 -4.087291 5.302198 -20.679877 -2.433772 -41.896054 72.591950 -45.770792 4.124299 -13.460467 12.638447 0.021153 0.044015 0.093089 -9.435624 -19.226974 8.925671 50.835457 81.919142 51.491225 -1.402972 -17.503373 -21.123411 -0.032041 0.023890 -0.009178
-229.292677 57.643843 23.813239 176.658172 -50.965355 -3.348444 4.203082 22.747442 3.896657 2.159886 13.042778 1.990440 2.789107 16.285090 2.586737 2.144926 13.035899 1.990328 1.193809 16.212624 6.235443 0.018714 -5.557473 11.158316 1.721187 2.095742 0.831584 1.590069 -15.071498 -13.004043 -27.174478 -14.029611 92.495075 -13.570769 -11.654339 -32.574559 -10.152480 -1.113892 -0.919455 1.623526 -16.443966 9.621329 27.376980 -21.779595 -78.188692 6.573517 4.825121 -4.066719 5.304938 -20.687609 -2.428590 -41.922912 72.589482 -45.793494 4.133162 -13.475507 12.628645 0.033425 0.028233 0.077376 -9.432766 -19.236228 8.928545 50.842254 81.920587 51.504582 -1.405343 -17.504391 -21.124445 -0.036294 0.023408 -0.009446
-229.294564 57.642344 23.810936 176.665995 -50.953938 -3.343762 4.199521 22.742760 3.885739 2.163112 13.039994 1.996781 2.790866 16.283912 2.588101 2.143274 13.035660 1.987958 1.192193 16.233353 6.193225 0.014317 -5.516101 11.063558 1.721872 2.096847 0.828100 1.580250 -15.073589 -12.995085 -27.165758 -14.131172 92.472809 -13.650134 -11.756302 -32.602182 -10.159986 -1.113434 -0.915200 1.627156 -16.432550 9.615156 27.382607 -21.812955 -78.166207 6.588185 4.829160 -4.059295 5.305944 -20.698038 -2.439664 -41.946099 72.591785 -45.819480 4.140428 -13.493066 12.625258 0.027747 0.034295 0.080640 -9.431743 -19.250609 8.920842 50.829190 81.927773 51.487233 -1.411432 -17.510945 -21.113891 -0.031012 0.024839 -0.010252
-229.295731 57.641599 23.808507 176.670707 -50.948425 -3.340540 4.201051 22.740933 3.886646 2.166336 13.041086 1.998752 2.789704 16.282531 2.587533 2.146372 13.033487 1.990682 1.184991 16.246296 6.160254 0.009426 -5.504386 11.025338 1.716527 2.097651 0.822075 1.589424 -15.078743 -12.983052 -27.171027 -14.205265 92.441699 -13.711870 -11.807676 -32.609447 -10.165086 -1.101951 -0.910078 1.628393 -16.433437 9.604163 27.392579 -21.830847 -78.152554 6.589966 4.843546 -4.069884 5.316224 -20.705400 -2.441992 -42.000963 72.595306 -45.870942 4.135153 -13.507107 12.621618 0.033949 0.026349 0.077528 -9.429522 -19.258401 8.914314 50.843095 81.928493 51.501036 -1.413217 -17.512812 -21.112890 -0.031118 0.025401 -0.008716
-229.295414 57.640890 23.806700 176.674455 -50.942680 -3.345498 4.213487 22.744080 3.903156 2.155968 13.033894 1.991601 2.794779 16.285176 2.589487 2.159547 13.036570 1.993499 1.168619 16.249546 6.135610 0.009818 -5.492803 10.980274 1.703147 2.090689 0.819147 1.597979 -15.081091 -12.977987 -27.174782 -14.299807 92.413545 -13.790529 -11.858334 -32.611278 -10.154751 -1.090443 -0.900044 1.612247 -16.442915 9.590540 27.411031 -21.820806 -78.133973 6.580277 4.874940 -4.061289 5.329165 -20.714597 -2.429464 -42.056398 72.598357 -45.918379 4.113402 -13.515635 12.613029 0.046458 0.018767 0.080924 -9.425076 -19.266224 8.915449 50.850616 81.929825 51.514088 -1.400394 -17.509441 -21.117794 -0.030106 0.024301 -0.006168
-229.295830 57.640030 23.805416 176.677142 -50.935412 -3.345854 4.213734 22.739482 3.903455 2.157346 13.034277 1.991643 2.795755 16.286341 2.591372 2.159847 13.036834 1.993872 1.165453 16.251088 6.122498 0.013454 -5.481736 10.939485 1.705161 2.086879 0.814618 1.599550 -15.082010 -12.973320 -27.170005 -14.414153 92.385569 -13.874678 -11.931442 -32.608521 -10.142357 -1.088366 -0.898044 1.612239 -16.441854 9.583175 27.419567 -21.804350 -78.129818 6.625357 4.896469 -4.016319 5.338074 -20.723165 -2.427733 -42.081570 72.598225 -45.937266 4.105233 -13.521646 12.601114 0.044293 0.013724 0.083172 -9.396468 -19.278518 8.910248 50.829321 81.930618 51.516076 -1.412476 -17.511531 -21.113407 -0.017534 0.023193 -0.004194
-229.296527 57.639389 23.804422 176.677956 -50.928870 -3.344384 4.214574 22.735317 3.903519 2.159616 13.036844 1.994004 2.791292 16.282808 2.588897 2.159765 13.036948 1.993965 1.165649 16.255872 6.110233 0.013770 -5.482232 10.933768 1.712067 2.084779 0.811079 1.601719 -15.081869 -12.969569 -27.165901 -14.498907 92.362526 -13.920829 -11.987032 -32.604065 -10.134797 -1.086977 -0.897842 1.617592 -16.439648 9.578783 27.421318 -21.781830 -78.132442 6.696171 4.908698 -3.981250 5.350029 -20.731011 -2.427245 -42.080845 72.604906 -45.931793 4.088554 -13.524188 12.597694 0.045589 0.006490 0.078248 -9.381114 -19.287191 8.905434 50.851145 81.925902 51.549314 -1.423947 -17.515124 -21.110454 -0.026698 0.025520 -0.005342
